<?xml version="1.0" encoding="UTF-8" standalone="no"?>
<!-- Generator: Adobe Illustrator 16.0.0, SVG Export Plug-In . SVG Version: 6.00 Build 0)  -->

<svg
   version="1.1"
   id="Layer_1"
   x="0px"
   y="0px"
   width="128px"
   height="128px"
   viewBox="0 0 128 128"
   enable-background="new 0 0 128 128"
   xml:space="preserve"
   inkscape:version="1.1.2 (b8e25be833, 2022-02-05)"
   sodipodi:docname="qgis_pt_spreadshirt_no_url_upgrade.svg"
   inkscape:export-filename="C:\Users\joao-pc\Desktop\qgis_PT_logo_512px.png"
   inkscape:export-xdpi="384"
   inkscape:export-ydpi="384"
   xmlns:inkscape="http://www.inkscape.org/namespaces/inkscape"
   xmlns:sodipodi="http://sodipodi.sourceforge.net/DTD/sodipodi-0.dtd"
   xmlns="http://www.w3.org/2000/svg"
   xmlns:svg="http://www.w3.org/2000/svg"
   xmlns:rdf="http://www.w3.org/1999/02/22-rdf-syntax-ns#"
   xmlns:cc="http://creativecommons.org/ns#"
   xmlns:dc="http://purl.org/dc/elements/1.1/"><metadata
     id="metadata4161"><rdf:RDF><cc:Work
         rdf:about=""><dc:format>image/svg+xml</dc:format><dc:type
           rdf:resource="http://purl.org/dc/dcmitype/StillImage" /><dc:title /></cc:Work></rdf:RDF></metadata><defs
     id="defs4159"><filter
       style="color-interpolation-filters:sRGB;"
       inkscape:label="Drop Shadow"
       id="filter4238"
       x="-0.015015837"
       y="-0.015429991"
       width="1.0323779"
       height="1.0332709"><feFlood
         flood-opacity="0.917647"
         flood-color="rgb(0,0,0)"
         result="flood"
         id="feFlood4240" /><feComposite
         in="flood"
         in2="SourceGraphic"
         operator="in"
         result="composite1"
         id="feComposite4242" /><feGaussianBlur
         in="composite1"
         stdDeviation="0.8"
         result="blur"
         id="feGaussianBlur4244" /><feOffset
         dx="0.3"
         dy="0.3"
         result="offset"
         id="feOffset4246" /><feComposite
         in="SourceGraphic"
         in2="offset"
         operator="over"
         result="composite2"
         id="feComposite4248" /></filter><filter
       style="color-interpolation-filters:sRGB;"
       inkscape:label="Drop Shadow"
       id="filter4302"
       x="-0.050314858"
       y="-0.039453991"
       width="1.1075783"
       height="1.0843698"><feFlood
         flood-opacity="0.917647"
         flood-color="rgb(0,0,0)"
         result="flood"
         id="feFlood4304" /><feComposite
         in="flood"
         in2="SourceGraphic"
         operator="in"
         result="composite1"
         id="feComposite4306" /><feGaussianBlur
         in="composite1"
         stdDeviation="0.8"
         result="blur"
         id="feGaussianBlur4308" /><feOffset
         dx="0.3"
         dy="0.3"
         result="offset"
         id="feOffset4310" /><feComposite
         in="SourceGraphic"
         in2="offset"
         operator="over"
         result="composite2"
         id="feComposite4312" /></filter></defs><sodipodi:namedview
     pagecolor="#ffffff"
     bordercolor="#666666"
     borderopacity="1"
     objecttolerance="10"
     gridtolerance="10"
     guidetolerance="10"
     inkscape:pageopacity="0"
     inkscape:pageshadow="2"
     inkscape:window-width="1920"
     inkscape:window-height="1017"
     id="namedview4157"
     showgrid="false"
     inkscape:zoom="4.695631"
     inkscape:cx="54.412282"
     inkscape:cy="57.713223"
     inkscape:window-x="-8"
     inkscape:window-y="-8"
     inkscape:window-maximized="1"
     inkscape:current-layer="Layer_1"
     inkscape:pagecheckerboard="1" /><linearGradient
     id="SVGID_1_"
     gradientUnits="userSpaceOnUse"
     x1="402.5244"
     y1="-220.8706"
     x2="400.6479"
     y2="-97.5023"
     gradientTransform="matrix(1,0,0,-1,-300.5195,-92.5547)"><stop
       offset="0"
       style="stop-color:#589632"
       id="stop4140" /><stop
       offset="1"
       style="stop-color:#93B023"
       id="stop4142" /></linearGradient><linearGradient
     id="SVGID_2_"
     gradientUnits="userSpaceOnUse"
     x1="365.4619"
     y1="-221.1455"
     x2="363.5923"
     y2="-98.227"
     gradientTransform="matrix(1,0,0,-1,-300.5195,-92.5547)"><stop
       offset="0"
       style="stop-color:#589632"
       id="stop4149" /><stop
       offset="1"
       style="stop-color:#93B023"
       id="stop4151" /></linearGradient><g
     id="g4231"
     style="filter:url(#filter4238)"
     transform="matrix(0.97881176,0,0,0.97881176,1.2371021,2.0057632)"><polygon
       id="polygon4137"
       points="68.613,88.548 68.613,69.625 86.891,69.625 71.697,54.625 52.613,54.625 52.613,72.746 "
       fill="#ee7913" /><polygon
       id="polygon4146"
       points="76.613,96.033 76.613,77.625 94.488,77.625 86.891,69.625 68.613,69.625 68.613,88.548 "
       fill="#f0e64a" /><g
       id="g4203"><polygon
         fill="url(#SVGID_1_)"
         points="126.613,126.625 126.613,109.057 94.488,77.625 76.613,77.625 76.613,96.033 107.143,126.625 "
         id="polygon4144"
         style="fill:url(#SVGID_1_)" /><path
         fill="url(#SVGID_2_)"
         d="m 68.923,101.552 c -1.165,0.242 -1.769,0.157 -4.685,0.157 -20.866,0 -38.612,-17.158 -38.612,-39.406 0,-22.248 17.551,-39.027 38.612,-39.027 21.061,0 37.833,16.78 37.833,39.027 0,3.619 -0.451,7.099 -1.284,10.398 L 120.1,92.012 c 4.979,-8.726 7.765,-18.869 7.765,-29.857 C 127.865,27.866 100.502,2.192 63.849,2.192 27.363,2.191 0,27.696 0,62.154 c 0,34.625 27.363,60.638 63.848,60.638 9.417,0 16.069,-1.469 23.042,-3.761 z"
         id="path4153"
         style="fill:url(#SVGID_2_)" /></g></g><polygon
     opacity="0.15"
     fill="#ffffff"
     enable-background="new    "
     points="71.697,54.625 126.613,109.057 126.613,126.625 53.083,54.625 "
     id="polygon4155"
     transform="matrix(0.97881176,0,0,0.97881176,1.2371021,2.0057632)" /><path
     inkscape:connector-curvature="0"
     style="display:inline;fill:#ff0000;stroke-width:0.978812;enable-background:new"
     mask="none"
     clip-path="none"
     d="m 27.96128,110.69471 c 0.336883,-0.0204 0.665916,-0.0707 0.962283,-0.19603 0.348574,-0.14743 0.663017,-0.36007 0.926643,-0.62369 0.263626,-0.26363 0.476269,-0.57807 0.623702,-0.92664 0.147433,-0.34858 0.23166,-0.7293 0.23166,-1.13157 0,-0.40229 -0.08423,-0.79192 -0.23166,-1.14048 -0.147433,-0.34858 -0.360076,-0.65413 -0.623702,-0.91774 -0.263626,-0.26364 -0.578069,-0.48519 -0.926643,-0.63262 -0.296293,-0.12532 -0.625496,-0.16661 -0.962283,-0.18711 z"
     id="path4406" /><path
     inkscape:connector-curvature="0"
     style="display:inline;fill:#006600;stroke-width:0.978812;enable-background:new"
     clip-path="none"
     d="m 27.96128,104.93883 c -0.05944,-0.004 -0.10895,-0.0356 -0.169291,-0.0356 -0.402276,0 -0.791911,0.0753 -1.140483,0.22276 -0.348571,0.14742 -0.663016,0.36897 -0.926642,0.63261 -0.263626,0.26361 -0.476269,0.56916 -0.623703,0.91774 -0.147432,0.34857 -0.222749,0.73818 -0.222749,1.14048 0,0.40227 0.07532,0.78299 0.222749,1.13157 0.147434,0.34857 0.360077,0.66301 0.623703,0.92664 0.263626,0.26362 0.578071,0.47626 0.926642,0.62369 0.348572,0.14745 0.738207,0.23168 1.140483,0.23168 0.06026,0 0.109947,-0.0321 0.169291,-0.0356 v -5.75587 z"
     id="path4411" /><g
     id="g4297"
     style="stroke:#ffffff;stroke-width:0.5;stroke-miterlimit:4;stroke-dasharray:none;stroke-opacity:1;filter:url(#filter4302)"
     transform="matrix(0.97881176,0,0,0.97881176,1.2371021,2.0057632)"><path
       id="path1339-0-8"
       d="m 36.378266,70.934343 c -0.147461,-0.0068 -0.28882,0.111824 -0.50066,0.34591 -0.394804,0.436255 -0.701468,0.463292 -1.010422,0.09103 -0.34695,-0.418061 -0.895507,-0.32986 -1.12876,0.182058 -0.178964,0.392805 -0.313332,0.448903 -0.955804,0.40963 -0.697824,-0.04267 -0.754903,-0.0087 -0.810158,0.473351 -0.05663,0.493712 -0.08775,0.516448 -0.773747,0.400528 -0.701363,-0.11851 -0.719129,-0.11105 -0.719129,0.418733 0,0.613443 -0.366787,1.006228 -0.78285,0.84657 -0.355397,-0.136369 -0.590858,0.230867 -0.591688,0.919393 -5.83e-4,0.422028 -0.097,0.565947 -0.455145,0.655409 -0.395771,0.09884 -0.454236,0.203882 -0.418734,0.791952 0.03459,0.573224 -0.02785,0.701407 -0.40963,0.84657 -0.49567,0.188455 -0.553902,0.38679 -0.263984,0.928496 0.142436,0.266216 0.12197,0.455361 -0.08193,0.746438 -0.10417,0.148737 -0.158461,0.262102 -0.172956,0.382322 v 0.163852 c 0.0201,0.119748 0.0794,0.262169 0.163853,0.464248 0.206832,0.495011 0.212303,0.715587 0.03641,1.101451 -0.156159,0.34305 -0.161609,0.498612 -0.01821,0.546174 0.658418,0.219475 0.809093,0.502888 0.582586,1.101451 -0.19657,0.519454 -0.177668,0.655578 0.154749,1.101451 0.20782,0.278791 0.617492,0.651546 0.919393,0.828364 0.531869,0.311544 0.572056,0.30974 1.046834,-0.06372 0.26949,-0.211983 0.925659,-0.98129 1.465567,-1.711346 0.888114,-1.200913 1.058724,-1.343364 1.765963,-1.456464 0.548836,-0.08776 0.857432,-0.05284 1.028628,0.118338 0.325033,0.325027 0.353291,1.421759 0.08193,2.94934 -0.122337,0.688275 -0.299333,3.485109 -0.391425,6.217281 -0.205635,6.100077 -0.454056,7.367836 -1.784169,9.112004 -0.618991,0.811663 -0.748806,0.897343 -1.993535,1.174273 -0.733793,0.16325 -1.829823,0.30488 -2.430474,0.3186 -0.232499,0.005 -0.438585,0.002 -0.628101,-0.0182 v 3.84142 c 0.344078,0.0209 0.680408,0.0631 0.983114,0.19116 0.35612,0.15063 0.677369,0.37697 0.946701,0.64631 0.269333,0.26933 0.486579,0.58148 0.637204,0.9376 0.150624,0.35612 0.236675,0.75418 0.236675,1.16517 0,0.41099 -0.08605,0.79995 -0.236675,1.15607 -0.150625,0.35612 -0.367871,0.67737 -0.637204,0.9467 -0.269332,0.26933 -0.590581,0.48657 -0.946701,0.6372 -0.302782,0.12807 -0.638939,0.17936 -0.983114,0.20026 v 0.98312 13.90923 c 0.675194,-0.001 1.337069,-0.005 2.066359,-0.009 6.995222,-0.0418 7.972169,-0.081 8.019656,-0.3277 0.03054,-0.1585 -0.750583,-1.07468 -1.793272,-2.10277 -2.450536,-2.41634 -2.618387,-2.74463 -2.530606,-5.11583 0.0833,-2.24906 0.308059,-2.66258 1.738654,-3.29525 1.867624,-0.82596 3.533158,-2.45158 5.425329,-5.29789 0.588146,-0.88467 0.906098,-1.60021 1.028628,-2.29393 0.0976,-0.5527 0.267115,-1.49514 0.373219,-2.10277 0.316434,-1.81183 0.04367,-2.75011 -1.101452,-3.80502 -0.874932,-0.80593 -0.970707,-0.97853 -1.183377,-2.102764 -0.250511,-1.324486 -0.353349,-2.856998 -0.300395,-4.378496 l 0.02729,-0.955804 h 1.247097 c 1.051812,0 1.367897,-0.08168 2.057256,-0.518866 1.176718,-0.746254 2.293835,-2.086609 2.430474,-2.912928 0.211298,-1.278508 0.124269,-2.760501 -0.200263,-3.440897 -0.300606,-0.630474 -0.295735,-0.678689 0.0091,-0.901187 0.176258,-0.12885 0.632277,-0.283949 1.019525,-0.34591 2.143705,-0.342791 0.858105,-1.875233 -1.957124,-2.330343 -1.448471,-0.234153 -1.696481,-0.455972 -1.237994,-1.110554 0.159829,-0.228248 0.291292,-0.618656 0.291292,-0.873878 0,-0.265948 0.154423,-0.560882 0.364116,-0.691821 0.385314,-0.240674 0.492058,-0.864353 0.182058,-1.055936 -0.300663,-0.185883 -0.199506,-0.738792 0.191161,-1.092348 0.460322,-0.416435 0.456532,-0.60639 -0.0091,-1.101451 -0.307678,-0.327626 -0.338409,-0.480817 -0.182058,-0.892084 0.292199,-0.768498 0.226215,-0.971654 -0.355013,-1.174275 -0.482372,-0.168122 -0.541246,-0.283745 -0.591689,-1.074142 -0.05624,-0.880098 -0.05277,-0.882751 -0.782849,-0.97401 -0.719799,-0.08998 -0.735867,-0.09633 -0.682718,-0.773747 0.06262,-0.798667 -0.264127,-1.037617 -0.983113,-0.710026 -0.413243,0.18828 -0.483733,0.147173 -0.828364,-0.43694 -0.431833,-0.731899 -0.543783,-0.757812 -1.292612,-0.318601 -0.532678,0.312438 -0.556093,0.310675 -0.882981,-0.09103 -0.205907,-0.253034 -0.35312,-0.384731 -0.50066,-0.391425 z"
       clip-path="none"
       mask="none"
       style="display:inline;fill:#ff0000;stroke:#ffffff;stroke-width:0.5;stroke-miterlimit:4;stroke-dasharray:none;stroke-opacity:1;enable-background:new"
       inkscape:connector-curvature="0" /><path
       id="path1341-9-4"
       d="m 11.94608,85.990541 c -0.212679,0.03372 -0.388565,0.227572 -0.546175,0.573483 -0.220913,0.484845 -0.311141,0.493394 -1.374538,0.163852 -0.350285,-0.108545 -0.4541746,-0.02257 -0.69182,0.546174 -0.2569116,0.614223 -0.3354761,0.65854 -0.9467017,0.609894 -0.6119596,-0.04874 -0.6744274,-0.008 -0.8192611,0.537071 -0.1533074,0.576836 -0.2985023,0.673673 -1.3381264,0.828364 -0.2876488,0.04279 -0.3840434,0.20988 -0.4278364,0.810158 -0.049226,0.675456 -0.1131964,0.779893 -0.5825856,0.882982 -0.6021256,0.132241 -0.8404731,0.641374 -0.555277,1.174274 0.3098744,0.578994 0.2226759,0.926035 -0.2821899,1.156069 -0.3691117,0.16802 -0.4469306,0.298741 -0.3641161,0.6281 0.3410777,1.35699 0.3399038,1.362193 -0.054617,1.638522 -0.4939773,0.34598 -0.4921683,0.678322 0.00909,1.356332 l 0.4005276,0.537071 -0.4005276,0.427837 c -0.4701554,0.500455 -0.5005518,0.728074 -0.1274406,1.03773 0.1509129,0.125242 0.2821899,0.493034 0.2821899,0.819261 0,0.326215 0.171487,0.815215 0.3823218,1.083245 0.2108611,0.26802 0.3298484,0.6076 0.2730871,0.75554 -0.135693,0.35363 1.0688466,2.39087 1.6294192,2.75818 0.2477941,0.16232 0.5959968,0.23801 0.8010553,0.17296 0.3576959,-0.11353 0.4889001,-0.35895 1.6749338,-2.99486 0.9032787,-2.007487 1.8927307,-2.653738 3.4317937,-2.239313 1.419767,0.382305 2.412802,2.151963 2.758179,4.906463 0.223436,1.78191 0.13742,2.13379 -0.637203,2.61253 -0.336426,0.20793 -0.818393,0.62455 -1.074142,0.9285 -0.905187,1.07576 -0.490115,1.63924 1.465567,1.97533 1.521681,0.26151 1.844655,0.49241 3.267941,2.42137 1.527208,2.06982 2.520534,2.84621 4.405804,3.4409 1.556622,0.49101 2.007197,1.31434 1.875198,3.43179 -0.119323,1.91263 -0.505778,2.5431 -2.412269,3.97797 -1.951869,1.46901 -2.661272,2.41816 -2.175593,2.90382 0.06491,0.0647 3.405571,0.0924 7.509893,0.0728 v -14.88325 c -0.06063,0.004 -0.111399,0.0364 -0.172955,0.0364 -0.410985,0 -0.809054,-0.0861 -1.165172,-0.23668 -0.356117,-0.15063 -0.677369,-0.36787 -0.946701,-0.6372 -0.269333,-0.26933 -0.486579,-0.59058 -0.637203,-0.9467 -0.150625,-0.35612 -0.227573,-0.74508 -0.227573,-1.15607 0,-0.41099 0.07695,-0.80905 0.227573,-1.16517 0.150624,-0.35612 0.36787,-0.66827 0.637203,-0.9376 0.269332,-0.26934 0.590584,-0.49568 0.946701,-0.64631 0.356118,-0.15063 0.754187,-0.22757 1.165172,-0.22757 0.06165,0 0.112238,0.0327 0.172955,0.0364 v -3.89604 c -0.320352,0.0364 -0.629356,0.0677 -0.855673,0.0728 -1.395613,0.0321 -1.920718,-0.33309 -2.658047,-1.829681 -0.301803,-0.612572 -0.657826,-1.244028 -0.791952,-1.401847 -0.202195,-0.238324 -0.209731,-0.400968 -0.0091,-0.955805 0.233582,-0.645933 0.231124,-0.684884 -0.291292,-1.101451 -0.510474,-0.407073 -0.528682,-0.456785 -0.318602,-1.03773 0.312802,-0.865315 0.275962,-1.195207 -0.145646,-1.329024 -0.510744,-0.162101 -0.778868,-0.738972 -0.637203,-1.383641 0.136794,-0.622871 -0.143005,-1.083245 -0.664512,-1.083245 -0.271733,0 -0.34591,-0.130211 -0.34591,-0.646306 0,-0.939478 -0.284958,-1.381631 -0.855673,-1.319921 -0.395346,0.04275 -0.515195,-0.05705 -0.700924,-0.591688 -0.197962,-0.569947 -0.281942,-0.633414 -0.791952,-0.582586 -0.49853,0.0497 -0.615895,-0.03161 -0.882981,-0.591688 -0.366167,-0.767875 -0.737108,-0.952639 -1.156069,-0.573483 -0.450137,0.407367 -0.689333,0.348421 -1.001319,-0.254881 -0.396094,-0.765967 -0.559862,-0.8101 -1.119657,-0.291293 -0.614831,0.569713 -0.65207,0.575845 -1.347229,-0.0091 -0.32092,-0.270034 -0.570171,-0.397839 -0.782849,-0.364116 z"
       clip-path="none"
       style="display:inline;fill:#006600;stroke:#ffffff;stroke-width:0.5;stroke-miterlimit:4;stroke-dasharray:none;stroke-opacity:1;enable-background:new"
       inkscape:connector-curvature="0" /><path
       inkscape:connector-curvature="0"
       id="path4393"
       d="m 30.103238,108.09906 c 0,1.64396 -1.332685,2.97664 -2.976643,2.97664 -1.643939,0 -2.976624,-1.33268 -2.976624,-2.97664 0,-1.64395 1.332685,-2.97664 2.976624,-2.97664 1.643958,0 2.976643,1.33269 2.976643,2.97664 z"
       style="fill:#e4f363;fill-opacity:1;fill-rule:evenodd;stroke:#ffffff;stroke-width:0.5;stroke-miterlimit:4;stroke-dasharray:none;stroke-opacity:1" /></g></svg>
