<?xml version="1.0" encoding="UTF-8" standalone="no"?>
<!-- Created with Inkscape (http://www.inkscape.org/) -->

<svg
   xmlns:dc="http://purl.org/dc/elements/1.1/"
   xmlns:cc="http://creativecommons.org/ns#"
   xmlns:rdf="http://www.w3.org/1999/02/22-rdf-syntax-ns#"
   xmlns:svg="http://www.w3.org/2000/svg"
   xmlns="http://www.w3.org/2000/svg"
   xmlns:sodipodi="http://sodipodi.sourceforge.net/DTD/sodipodi-0.dtd"
   xmlns:inkscape="http://www.inkscape.org/namespaces/inkscape"
   width="352.31946"
   height="375.97192"
   id="svg3387"
   version="1.1"
   inkscape:version="0.48.4 r9939"
   sodipodi:docname="qgis_pt_spreadshirt.svg">
  <defs
     id="defs3389">
    <path
       style="fill:none;stroke:none;enable-background:new"
       d="m 42.548617,233.70998 c -6.335259,-15.45862 -9.842573,-32.48252 -9.842573,-50.36378 0,-68.58174 51.683448,-124.703731 116.523276,-128.133811 2.09653,-0.11279 4.10682,0 6.22325,0 6.05596,0 12.00913,0.45849 17.82978,1.34376"
       id="path4326-6"
       inkscape:connector-curvature="0" />
  </defs>
  <sodipodi:namedview
     id="base"
     pagecolor="#ffffff"
     bordercolor="#666666"
     borderopacity="1.0"
     inkscape:pageopacity="0.0"
     inkscape:pageshadow="2"
     inkscape:zoom="0.98994949"
     inkscape:cx="211.89699"
     inkscape:cy="73.108095"
     inkscape:document-units="mm"
     inkscape:current-layer="text3183-2"
     showgrid="false"
     fit-margin-top="10"
     fit-margin-left="10"
     fit-margin-right="10"
     fit-margin-bottom="10"
     inkscape:window-width="1309"
     inkscape:window-height="744"
     inkscape:window-x="57"
     inkscape:window-y="24"
     inkscape:window-maximized="1" />
  <metadata
     id="metadata3392">
    <rdf:RDF>
      <cc:Work
         rdf:about="">
        <dc:format>image/svg+xml</dc:format>
        <dc:type
           rdf:resource="http://purl.org/dc/dcmitype/StillImage" />
        <dc:title></dc:title>
      </cc:Work>
    </rdf:RDF>
  </metadata>
  <g
     inkscape:label="Layer 1"
     inkscape:groupmode="layer"
     id="layer1"
     transform="translate(-198.84027,-344.37622)">
    <g
       style="enable-background:new"
       transform="matrix(6.6345889,0,0,6.6345889,164.70698,323.57182)"
       id="Seta">
      <path
         style="fill:#e4f363;fill-opacity:1"
         inkscape:connector-curvature="0"
         d="M 43.736,52.612 C 38.757,52.8 39.298,51.9 39.298,50.581 v -2.625 c 5.129,-3.433 8.531,-9.446 8.531,-16.281 0,-4.821 -1.702,-9.218 -4.499,-12.601 -1.742,2.268 -4.436,5.77 -7.4,9.623 0.052,0.862 0.087,1.737 0.087,2.635 0,2.163 -0.154,4.241 -0.438,6.156 -1.618,-0.665 -3.682,-1.196 -6.188,-1.188 -3.702,0.014 -5.986,0.859 -6.875,1.469 -0.31,-1.993 -0.5,-4.168 -0.5,-6.438 0,-9.733 3.13,-17.594 7,-17.594 2.104,0 3.985,2.335 5.268,6.021 1.548,-2.008 2.893,-3.751 3.893,-5.047 -2.629,-1.497 -5.643,-2.349 -8.848,-2.349 -0.319,0 -0.622,-0.017 -0.938,0 -9.773,0.517 -17.563,8.976 -17.563,19.313 0,10.669 8.284,19.313 18.5,19.313 1.104,0 2.168,-0.118 3.219,-0.313 v 3.094 c 0.085,1.315 1.673,4.122 6.656,4.156 5.771,0.038 8.449,-3.498 8.938,-4.563 0.91,-2.431 0.734,-3.989 0.688,-4.969 -0.018,0.588 -1.995,4.101 -5.093,4.219 z M 32.548,46.55 c -1.036,1.524 -2.243,2.406 -3.531,2.406 -2.823,0 -5.236,-4.198 -6.344,-10.25 0.895,-0.638 2.7,-1.54 5.063,-1.5 3.739,0.063 4.813,1.516 4.813,2.281 v 7.063 z"
         id="path5" />
      <g
         id="g7"
         style="fill:#006600;fill-opacity:1">
        <path
           style="fill:#006600;fill-opacity:1"
           inkscape:connector-curvature="0"
           d="m 37.166,10.773 3.657,2.145 c 0,0 -9.979,12.929 -17.557,22.787 0.02,0.186 0.028,0.37 0.051,0.555 1.38,-0.525 3.431,-0.95 6.07,-0.96 0.064,0 0.126,0.007 0.19,0.007 7.093,-9.205 14.989,-19.483 14.989,-19.483 l 3.009,2.988 2.596,-14.142 0.021,-0.027 -13.026,6.13 z"
           id="path9" />
        <path
           style="fill:#006600;fill-opacity:1"
           inkscape:connector-curvature="0"
           d="m 23.785,39.187 c 0.199,0.97 0.434,1.882 0.698,2.726 0.894,-1.156 1.852,-2.397 2.846,-3.688 -1.601,0.054 -2.845,0.57 -3.544,0.962 z"
           id="path11" />
        <path
           style="fill:#006600;fill-opacity:1"
           inkscape:connector-curvature="0"
           d="m 15.23,45.668 -8.578,3.617 7.975,1.512 -0.001,0.001 3.516,7.356 1.276,-9.018 c -1.546,-0.955 -2.954,-2.12 -4.188,-3.468 z"
           id="path13" />
      </g>
    </g>
    <g
       style="display:inline;enable-background:new"
       id="g4413"
       transform="matrix(6.634764,0,0,6.634764,-222.50155,308.22051)">
      <path
         transform="matrix(0.15072126,0,0,0.15072126,5.8987357,3.8908905)"
         id="path4406"
         d="m 657.90625,325.1875 c 1.18154,-0.0718 2.33556,-0.24785 3.375,-0.6875 1.22255,-0.5171 2.32539,-1.26289 3.25,-2.1875 0.92461,-0.92461 1.67041,-2.02745 2.1875,-3.25 0.51709,-1.22255 0.8125,-2.55784 0.8125,-3.96875 0,-1.41091 -0.29541,-2.77745 -0.8125,-4 -0.51709,-1.22255 -1.26289,-2.29414 -2.1875,-3.21875 -0.92461,-0.92461 -2.02745,-1.70165 -3.25,-2.21875 -1.03918,-0.43953 -2.19379,-0.58438 -3.375,-0.65625 l 0,20.1875 z"
         clip-path="none"
         mask="none"
         style="fill:#ff0000;display:inline;enable-background:new"
         inkscape:connector-curvature="0" />
      <path
         transform="matrix(0.15072126,0,0,0.15072126,5.8987357,3.8908905)"
         id="path1339-0-8"
         d="m 689.0625,187.5 c -0.50623,-0.0232 -0.99151,0.38389 -1.71875,1.1875 -1.35535,1.49765 -2.40812,1.59047 -3.46875,0.3125 -1.19107,-1.43519 -3.07425,-1.1324 -3.875,0.625 -0.61438,1.34849 -1.07566,1.54107 -3.28125,1.40625 -2.39561,-0.1465 -2.59156,-0.0299 -2.78125,1.625 -0.1944,1.6949 -0.30124,1.77295 -2.65625,1.375 -2.40776,-0.40684 -2.46875,-0.38123 -2.46875,1.4375 0,2.10593 -1.25917,3.45435 -2.6875,2.90625 -1.22007,-0.46815 -2.0284,0.79256 -2.03125,3.15625 -0.002,1.44881 -0.33301,1.94288 -1.5625,2.25 -1.35867,0.3393 -1.55938,0.69992 -1.4375,2.71875 0.11876,1.96786 -0.0956,2.40791 -1.40625,2.90625 -1.70162,0.64696 -1.90153,1.32784 -0.90625,3.1875 0.48898,0.91391 0.41872,1.56324 -0.28125,2.5625 -0.35761,0.51061 -0.54399,0.89979 -0.59375,1.3125 l 0,0.5625 c 0.069,0.41109 0.27256,0.90002 0.5625,1.59375 0.71005,1.69936 0.72883,2.45659 0.125,3.78125 -0.53609,1.17768 -0.5548,1.71172 -0.0625,1.875 2.26033,0.75345 2.77759,1.7264 2,3.78125 -0.67482,1.78327 -0.60993,2.25058 0.53125,3.78125 0.71344,0.95708 2.11983,2.23674 3.15625,2.84375 1.82589,1.06952 1.96385,1.06333 3.59375,-0.21875 0.92515,-0.72773 3.17776,-3.36874 5.03125,-5.875 3.04887,-4.1227 3.63457,-4.61173 6.0625,-5 1.88414,-0.30128 2.94354,-0.18139 3.53125,0.40625 1.11583,1.11581 1.21284,4.88086 0.28125,10.125 -0.41998,2.36283 -1.0276,11.96428 -1.34375,21.34375 -0.70594,20.94139 -1.55876,25.29357 -6.125,31.28125 -2.12498,2.78643 -2.57063,3.08055 -6.84375,4.03125 -2.51909,0.56044 -6.28173,1.04664 -8.34375,1.09375 -0.79816,0.0186 -1.50565,0.006 -2.15625,-0.0625 l 0,13.1875 c 1.18121,0.0719 2.33582,0.21672 3.375,0.65625 1.22255,0.5171 2.32539,1.29414 3.25,2.21875 0.92461,0.92461 1.67041,1.9962 2.1875,3.21875 0.51709,1.22255 0.8125,2.58909 0.8125,4 0,1.41091 -0.29541,2.7462 -0.8125,3.96875 -0.51709,1.22255 -1.26289,2.32539 -2.1875,3.25 -0.92461,0.92461 -2.02745,1.6704 -3.25,2.1875 -1.03944,0.43965 -2.19346,0.61572 -3.375,0.6875 l 0,3.375 0,47.75 c 2.31792,-0.004 4.59012,-0.0167 7.09375,-0.0312 24.0144,-0.14358 27.36823,-0.27813 27.53125,-1.125 0.10483,-0.54412 -2.57673,-3.68933 -6.15625,-7.21875 -8.41262,-8.29521 -8.98885,-9.42223 -8.6875,-17.5625 0.28596,-7.72096 1.05756,-9.14054 5.96875,-11.3125 6.4115,-2.83547 12.12923,-8.4162 18.625,-18.1875 2.01909,-3.03703 3.11061,-5.49348 3.53125,-7.875 0.33506,-1.89741 0.917,-5.13277 1.28125,-7.21875 1.08631,-6.21995 0.14991,-9.44104 -3.78125,-13.0625 -3.00362,-2.76674 -3.33241,-3.35927 -4.0625,-7.21875 -0.86,-4.54692 -1.21304,-9.80799 -1.03125,-15.03125 l 0.0937,-3.28125 4.28125,0 c 3.61084,0 4.69595,-0.28039 7.0625,-1.78125 4.03964,-2.56187 7.87467,-7.16327 8.34375,-10 0.72538,-4.38908 0.42661,-9.47672 -0.6875,-11.8125 -1.03197,-2.1644 -1.01525,-2.32992 0.0312,-3.09375 0.60509,-0.44234 2.17059,-0.97479 3.5,-1.1875 7.35928,-1.17679 2.94585,-6.43762 -6.71875,-8 -4.97256,-0.80384 -5.82397,-1.56534 -4.25,-3.8125 0.54869,-0.78357 1,-2.12383 1,-3 0,-0.91299 0.53013,-1.92549 1.25,-2.375 1.32277,-0.82623 1.68922,-2.9673 0.625,-3.625 -1.03217,-0.63813 -0.6849,-2.53625 0.65625,-3.75 1.58027,-1.42961 1.56726,-2.08172 -0.0312,-3.78125 -1.05625,-1.12473 -1.16175,-1.65063 -0.625,-3.0625 1.00311,-2.63823 0.77659,-3.33566 -1.21875,-4.03125 -1.65597,-0.57716 -1.85808,-0.97409 -2.03125,-3.6875 -0.19307,-3.02135 -0.18115,-3.03046 -2.6875,-3.34375 -2.47105,-0.30891 -2.52621,-0.33068 -2.34375,-2.65625 0.21497,-2.7418 -0.90674,-3.56211 -3.375,-2.4375 -1.41865,0.64636 -1.66064,0.50524 -2.84375,-1.5 -1.48247,-2.51259 -1.86679,-2.60155 -4.4375,-1.09375 -1.82867,1.07259 -1.90905,1.06654 -3.03125,-0.3125 -0.70687,-0.86866 -1.21225,-1.32077 -1.71875,-1.34375 z"
         clip-path="none"
         mask="none"
         style="fill:#ff0000;display:inline;enable-background:new"
         inkscape:connector-curvature="0" />
      <path
         transform="matrix(0.15072126,0,0,0.15072126,5.8987357,3.8908905)"
         id="path4411"
         d="m 657.90625,305 c -0.20844,-0.0127 -0.38212,-0.125 -0.59375,-0.125 -1.4109,0 -2.77746,0.26415 -4,0.78125 -1.22254,0.5171 -2.32539,1.29414 -3.25,2.21875 -0.92461,0.92461 -1.67041,1.9962 -2.1875,3.21875 -0.51709,1.22255 -0.78125,2.58909 -0.78125,4 0,1.41091 0.26416,2.7462 0.78125,3.96875 0.51709,1.22255 1.26289,2.32539 2.1875,3.25 0.92461,0.92461 2.02746,1.6704 3.25,2.1875 1.22254,0.5171 2.5891,0.8125 4,0.8125 0.21132,0 0.38561,-0.11235 0.59375,-0.125 l 0,-20.1875 z"
         clip-path="none"
         style="fill:#006600;display:inline;enable-background:new"
         inkscape:connector-curvature="0" />
      <path
         transform="matrix(0.15072126,0,0,0.15072126,5.8987357,3.8908905)"
         id="path1341-9-4"
         d="m 605.1875,239.1875 c -0.73012,0.11577 -1.33393,0.78125 -1.875,1.96875 -0.75839,1.66446 -1.06814,1.69381 -4.71875,0.5625 -1.20252,-0.37263 -1.55917,-0.0775 -2.375,1.875 -0.88197,2.10861 -1.15168,2.26075 -3.25,2.09375 -2.10084,-0.16733 -2.31529,-0.0273 -2.8125,1.84375 -0.5263,1.98026 -1.02475,2.3127 -4.59375,2.84375 -0.98749,0.14689 -1.31841,0.72051 -1.46875,2.78125 -0.16899,2.31882 -0.3886,2.67735 -2,3.03125 -2.06708,0.45398 -2.88532,2.20182 -1.90625,4.03125 1.06379,1.98767 0.76444,3.17905 -0.96875,3.96875 -1.26715,0.57681 -1.5343,1.02557 -1.25,2.15625 1.17091,4.65851 1.16688,4.67637 -0.1875,5.625 -1.69581,1.18774 -1.6896,2.32866 0.0312,4.65625 l 1.375,1.84375 -1.375,1.46875 c -1.61403,1.71805 -1.71838,2.49946 -0.4375,3.5625 0.51808,0.42995 0.96875,1.69257 0.96875,2.8125 0,1.1199 0.58871,2.7986 1.3125,3.71875 0.72388,0.92012 1.13236,2.08586 0.9375,2.59375 -0.46583,1.21399 3.66932,8.20779 5.59375,9.46875 0.85067,0.55725 2.04604,0.81708 2.75,0.59375 1.22796,-0.38973 1.67838,-1.23224 5.75,-10.28125 3.10093,-6.89165 6.49769,-9.11021 11.78125,-7.6875 4.87402,1.31244 8.28308,7.38762 9.46875,16.84375 0.76705,6.11724 0.47176,7.32525 -2.1875,8.96875 -1.15494,0.71379 -2.80952,2.14406 -3.6875,3.1875 -3.10748,3.69304 -1.68255,5.62746 5.03125,6.78125 5.22389,0.89775 6.33265,1.69045 11.21875,8.3125 5.24286,7.10563 8.65292,9.77096 15.125,11.8125 5.34384,1.68564 6.89065,4.51209 6.4375,11.78125 -0.40963,6.56599 -1.73632,8.73037 -8.28125,13.65625 -6.70071,5.04307 -9.13607,8.30147 -7.46875,9.96875 0.22284,0.22214 11.69123,0.3173 25.78125,0.25 l 0,-51.09375 c -0.20814,0.0127 -0.38243,0.125 -0.59375,0.125 -1.4109,0 -2.77746,-0.2954 -4,-0.8125 -1.22254,-0.5171 -2.32539,-1.26289 -3.25,-2.1875 -0.92461,-0.92461 -1.67041,-2.02745 -2.1875,-3.25 -0.51709,-1.22255 -0.78125,-2.55784 -0.78125,-3.96875 0,-1.41091 0.26416,-2.77745 0.78125,-4 0.51709,-1.22255 1.26289,-2.29414 2.1875,-3.21875 0.92461,-0.92461 2.02746,-1.70165 3.25,-2.21875 1.22254,-0.5171 2.5891,-0.78125 4,-0.78125 0.21163,0 0.38531,0.11232 0.59375,0.125 l 0,-13.375 c -1.09976,0.12493 -2.16056,0.23225 -2.9375,0.25 -4.7911,0.11015 -6.59377,-1.14351 -9.125,-6.28125 -1.03608,-2.10294 -2.2583,-4.27071 -2.71875,-4.8125 -0.69413,-0.81816 -0.72,-1.37651 -0.0312,-3.28125 0.80188,-2.21747 0.79344,-2.35119 -1,-3.78125 -1.75244,-1.39747 -1.81495,-1.56813 -1.09375,-3.5625 1.07384,-2.9706 0.94737,-4.10311 -0.5,-4.5625 -1.75337,-0.55649 -2.67383,-2.53687 -2.1875,-4.75 0.46961,-2.1383 -0.49093,-3.71875 -2.28125,-3.71875 -0.93285,0 -1.1875,-0.44701 -1.1875,-2.21875 0,-3.2252 -0.97825,-4.7431 -2.9375,-4.53125 -1.35721,0.14675 -1.76865,-0.19584 -2.40625,-2.03125 -0.6796,-1.95661 -0.9679,-2.17449 -2.71875,-2 -1.71144,0.17061 -2.11435,-0.10852 -3.03125,-2.03125 -1.25704,-2.63609 -2.53047,-3.27038 -3.96875,-1.96875 -1.54531,1.39848 -2.36646,1.19612 -3.4375,-0.875 -1.35978,-2.62954 -1.92199,-2.78105 -3.84375,-1 -2.1107,1.95581 -2.23854,1.97686 -4.625,-0.0312 -1.10171,-0.92702 -1.95738,-1.36577 -2.6875,-1.25 z"
         clip-path="none"
         style="fill:#006600;display:inline;enable-background:new"
         inkscape:connector-curvature="0" />
      <path
         inkscape:connector-curvature="0"
         id="path4393"
         d="m 106.50827,51.380962 c 0,0.850618 -0.68956,1.540179 -1.54018,1.540179 -0.85061,0 -1.54017,-0.689561 -1.54017,-1.540179 0,-0.850617 0.68956,-1.540178 1.54017,-1.540178 0.85062,0 1.54018,0.689561 1.54018,1.540178 z"
         style="fill:#e4f363;fill-opacity:1;fill-rule:evenodd;stroke:none" />
    </g>
    <g
       transform="translate(197.36027,342.91453)"
       style="font-size:40.41461182px;font-style:normal;font-variant:normal;font-weight:normal;font-stretch:normal;text-align:start;line-height:125%;letter-spacing:0px;word-spacing:0px;writing-mode:lr-tb;text-anchor:start;fill:#006600;fill-opacity:1;stroke:none;display:inline;enable-background:new;font-family:Ubuntu Mono;-inkscape-font-specification:Ubuntu Mono"
       id="text3183-2" />
  </g>
</svg>
