<?xml version="1.0" encoding="UTF-8" standalone="no"?>
<!-- Created with Inkscape (http://www.inkscape.org/) -->

<svg
   xmlns:dc="http://purl.org/dc/elements/1.1/"
   xmlns:cc="http://creativecommons.org/ns#"
   xmlns:rdf="http://www.w3.org/1999/02/22-rdf-syntax-ns#"
   xmlns:svg="http://www.w3.org/2000/svg"
   xmlns="http://www.w3.org/2000/svg"
   xmlns:sodipodi="http://sodipodi.sourceforge.net/DTD/sodipodi-0.dtd"
   xmlns:inkscape="http://www.inkscape.org/namespaces/inkscape"
   width="352.31946"
   height="375.97192"
   id="svg3387"
   version="1.1"
   inkscape:version="0.48.4 r9939"
   sodipodi:docname="qgis_pt_spreadshirt.svg">
  <defs
     id="defs3389">
    <path
       style="fill:none;stroke:none;enable-background:new"
       d="m 42.548617,233.70998 c -6.335259,-15.45862 -9.842573,-32.48252 -9.842573,-50.36378 0,-68.58174 51.683448,-124.703731 116.523276,-128.133811 2.09653,-0.11279 4.10682,0 6.22325,0 6.05596,0 12.00913,0.45849 17.82978,1.34376"
       id="path4326-6"
       inkscape:connector-curvature="0" />
  </defs>
  <sodipodi:namedview
     id="base"
     pagecolor="#ffffff"
     bordercolor="#666666"
     borderopacity="1.0"
     inkscape:pageopacity="0.0"
     inkscape:pageshadow="2"
     inkscape:zoom="0.98994949"
     inkscape:cx="331.09499"
     inkscape:cy="73.108095"
     inkscape:document-units="mm"
     inkscape:current-layer="text3183-2"
     showgrid="false"
     fit-margin-top="10"
     fit-margin-left="10"
     fit-margin-right="10"
     fit-margin-bottom="10"
     inkscape:window-width="1309"
     inkscape:window-height="744"
     inkscape:window-x="57"
     inkscape:window-y="24"
     inkscape:window-maximized="1" />
  <metadata
     id="metadata3392">
    <rdf:RDF>
      <cc:Work
         rdf:about="">
        <dc:format>image/svg+xml</dc:format>
        <dc:type
           rdf:resource="http://purl.org/dc/dcmitype/StillImage" />
        <dc:title></dc:title>
      </cc:Work>
    </rdf:RDF>
  </metadata>
  <g
     inkscape:label="Layer 1"
     inkscape:groupmode="layer"
     id="layer1"
     transform="translate(-198.84027,-344.37622)">
    <g
       style="enable-background:new"
       transform="matrix(6.6345889,0,0,6.6345889,164.70698,323.57182)"
       id="Seta">
      <path
         style="fill:#e4f363;fill-opacity:1"
         inkscape:connector-curvature="0"
         d="M 43.736,52.612 C 38.757,52.8 39.298,51.9 39.298,50.581 v -2.625 c 5.129,-3.433 8.531,-9.446 8.531,-16.281 0,-4.821 -1.702,-9.218 -4.499,-12.601 -1.742,2.268 -4.436,5.77 -7.4,9.623 0.052,0.862 0.087,1.737 0.087,2.635 0,2.163 -0.154,4.241 -0.438,6.156 -1.618,-0.665 -3.682,-1.196 -6.188,-1.188 -3.702,0.014 -5.986,0.859 -6.875,1.469 -0.31,-1.993 -0.5,-4.168 -0.5,-6.438 0,-9.733 3.13,-17.594 7,-17.594 2.104,0 3.985,2.335 5.268,6.021 1.548,-2.008 2.893,-3.751 3.893,-5.047 -2.629,-1.497 -5.643,-2.349 -8.848,-2.349 -0.319,0 -0.622,-0.017 -0.938,0 -9.773,0.517 -17.563,8.976 -17.563,19.313 0,10.669 8.284,19.313 18.5,19.313 1.104,0 2.168,-0.118 3.219,-0.313 v 3.094 c 0.085,1.315 1.673,4.122 6.656,4.156 5.771,0.038 8.449,-3.498 8.938,-4.563 0.91,-2.431 0.734,-3.989 0.688,-4.969 -0.018,0.588 -1.995,4.101 -5.093,4.219 z M 32.548,46.55 c -1.036,1.524 -2.243,2.406 -3.531,2.406 -2.823,0 -5.236,-4.198 -6.344,-10.25 0.895,-0.638 2.7,-1.54 5.063,-1.5 3.739,0.063 4.813,1.516 4.813,2.281 v 7.063 z"
         id="path5" />
      <g
         id="g7"
         style="fill:#006600;fill-opacity:1">
        <path
           style="fill:#006600;fill-opacity:1"
           inkscape:connector-curvature="0"
           d="m 37.166,10.773 3.657,2.145 c 0,0 -9.979,12.929 -17.557,22.787 0.02,0.186 0.028,0.37 0.051,0.555 1.38,-0.525 3.431,-0.95 6.07,-0.96 0.064,0 0.126,0.007 0.19,0.007 7.093,-9.205 14.989,-19.483 14.989,-19.483 l 3.009,2.988 2.596,-14.142 0.021,-0.027 -13.026,6.13 z"
           id="path9" />
        <path
           style="fill:#006600;fill-opacity:1"
           inkscape:connector-curvature="0"
           d="m 23.785,39.187 c 0.199,0.97 0.434,1.882 0.698,2.726 0.894,-1.156 1.852,-2.397 2.846,-3.688 -1.601,0.054 -2.845,0.57 -3.544,0.962 z"
           id="path11" />
        <path
           style="fill:#006600;fill-opacity:1"
           inkscape:connector-curvature="0"
           d="m 15.23,45.668 -8.578,3.617 7.975,1.512 -0.001,0.001 3.516,7.356 1.276,-9.018 c -1.546,-0.955 -2.954,-2.12 -4.188,-3.468 z"
           id="path13" />
      </g>
    </g>
    <g
       style="display:inline;enable-background:new"
       id="g4413"
       transform="matrix(6.634764,0,0,6.634764,-222.50155,308.22051)">
      <path
         transform="matrix(0.15072126,0,0,0.15072126,5.8987357,3.8908905)"
         id="path4406"
         d="m 657.90625,325.1875 c 1.18154,-0.0718 2.33556,-0.24785 3.375,-0.6875 1.22255,-0.5171 2.32539,-1.26289 3.25,-2.1875 0.92461,-0.92461 1.67041,-2.02745 2.1875,-3.25 0.51709,-1.22255 0.8125,-2.55784 0.8125,-3.96875 0,-1.41091 -0.29541,-2.77745 -0.8125,-4 -0.51709,-1.22255 -1.26289,-2.29414 -2.1875,-3.21875 -0.92461,-0.92461 -2.02745,-1.70165 -3.25,-2.21875 -1.03918,-0.43953 -2.19379,-0.58438 -3.375,-0.65625 l 0,20.1875 z"
         clip-path="none"
         mask="none"
         style="fill:#ff0000;display:inline;enable-background:new"
         inkscape:connector-curvature="0" />
      <path
         transform="matrix(0.15072126,0,0,0.15072126,5.8987357,3.8908905)"
         id="path1339-0-8"
         d="m 689.0625,187.5 c -0.50623,-0.0232 -0.99151,0.38389 -1.71875,1.1875 -1.35535,1.49765 -2.40812,1.59047 -3.46875,0.3125 -1.19107,-1.43519 -3.07425,-1.1324 -3.875,0.625 -0.61438,1.34849 -1.07566,1.54107 -3.28125,1.40625 -2.39561,-0.1465 -2.59156,-0.0299 -2.78125,1.625 -0.1944,1.6949 -0.30124,1.77295 -2.65625,1.375 -2.40776,-0.40684 -2.46875,-0.38123 -2.46875,1.4375 0,2.10593 -1.25917,3.45435 -2.6875,2.90625 -1.22007,-0.46815 -2.0284,0.79256 -2.03125,3.15625 -0.002,1.44881 -0.33301,1.94288 -1.5625,2.25 -1.35867,0.3393 -1.55938,0.69992 -1.4375,2.71875 0.11876,1.96786 -0.0956,2.40791 -1.40625,2.90625 -1.70162,0.64696 -1.90153,1.32784 -0.90625,3.1875 0.48898,0.91391 0.41872,1.56324 -0.28125,2.5625 -0.35761,0.51061 -0.54399,0.89979 -0.59375,1.3125 l 0,0.5625 c 0.069,0.41109 0.27256,0.90002 0.5625,1.59375 0.71005,1.69936 0.72883,2.45659 0.125,3.78125 -0.53609,1.17768 -0.5548,1.71172 -0.0625,1.875 2.26033,0.75345 2.77759,1.7264 2,3.78125 -0.67482,1.78327 -0.60993,2.25058 0.53125,3.78125 0.71344,0.95708 2.11983,2.23674 3.15625,2.84375 1.82589,1.06952 1.96385,1.06333 3.59375,-0.21875 0.92515,-0.72773 3.17776,-3.36874 5.03125,-5.875 3.04887,-4.1227 3.63457,-4.61173 6.0625,-5 1.88414,-0.30128 2.94354,-0.18139 3.53125,0.40625 1.11583,1.11581 1.21284,4.88086 0.28125,10.125 -0.41998,2.36283 -1.0276,11.96428 -1.34375,21.34375 -0.70594,20.94139 -1.55876,25.29357 -6.125,31.28125 -2.12498,2.78643 -2.57063,3.08055 -6.84375,4.03125 -2.51909,0.56044 -6.28173,1.04664 -8.34375,1.09375 -0.79816,0.0186 -1.50565,0.006 -2.15625,-0.0625 l 0,13.1875 c 1.18121,0.0719 2.33582,0.21672 3.375,0.65625 1.22255,0.5171 2.32539,1.29414 3.25,2.21875 0.92461,0.92461 1.67041,1.9962 2.1875,3.21875 0.51709,1.22255 0.8125,2.58909 0.8125,4 0,1.41091 -0.29541,2.7462 -0.8125,3.96875 -0.51709,1.22255 -1.26289,2.32539 -2.1875,3.25 -0.92461,0.92461 -2.02745,1.6704 -3.25,2.1875 -1.03944,0.43965 -2.19346,0.61572 -3.375,0.6875 l 0,3.375 0,47.75 c 2.31792,-0.004 4.59012,-0.0167 7.09375,-0.0312 24.0144,-0.14358 27.36823,-0.27813 27.53125,-1.125 0.10483,-0.54412 -2.57673,-3.68933 -6.15625,-7.21875 -8.41262,-8.29521 -8.98885,-9.42223 -8.6875,-17.5625 0.28596,-7.72096 1.05756,-9.14054 5.96875,-11.3125 6.4115,-2.83547 12.12923,-8.4162 18.625,-18.1875 2.01909,-3.03703 3.11061,-5.49348 3.53125,-7.875 0.33506,-1.89741 0.917,-5.13277 1.28125,-7.21875 1.08631,-6.21995 0.14991,-9.44104 -3.78125,-13.0625 -3.00362,-2.76674 -3.33241,-3.35927 -4.0625,-7.21875 -0.86,-4.54692 -1.21304,-9.80799 -1.03125,-15.03125 l 0.0937,-3.28125 4.28125,0 c 3.61084,0 4.69595,-0.28039 7.0625,-1.78125 4.03964,-2.56187 7.87467,-7.16327 8.34375,-10 0.72538,-4.38908 0.42661,-9.47672 -0.6875,-11.8125 -1.03197,-2.1644 -1.01525,-2.32992 0.0312,-3.09375 0.60509,-0.44234 2.17059,-0.97479 3.5,-1.1875 7.35928,-1.17679 2.94585,-6.43762 -6.71875,-8 -4.97256,-0.80384 -5.82397,-1.56534 -4.25,-3.8125 0.54869,-0.78357 1,-2.12383 1,-3 0,-0.91299 0.53013,-1.92549 1.25,-2.375 1.32277,-0.82623 1.68922,-2.9673 0.625,-3.625 -1.03217,-0.63813 -0.6849,-2.53625 0.65625,-3.75 1.58027,-1.42961 1.56726,-2.08172 -0.0312,-3.78125 -1.05625,-1.12473 -1.16175,-1.65063 -0.625,-3.0625 1.00311,-2.63823 0.77659,-3.33566 -1.21875,-4.03125 -1.65597,-0.57716 -1.85808,-0.97409 -2.03125,-3.6875 -0.19307,-3.02135 -0.18115,-3.03046 -2.6875,-3.34375 -2.47105,-0.30891 -2.52621,-0.33068 -2.34375,-2.65625 0.21497,-2.7418 -0.90674,-3.56211 -3.375,-2.4375 -1.41865,0.64636 -1.66064,0.50524 -2.84375,-1.5 -1.48247,-2.51259 -1.86679,-2.60155 -4.4375,-1.09375 -1.82867,1.07259 -1.90905,1.06654 -3.03125,-0.3125 -0.70687,-0.86866 -1.21225,-1.32077 -1.71875,-1.34375 z"
         clip-path="none"
         mask="none"
         style="fill:#ff0000;display:inline;enable-background:new"
         inkscape:connector-curvature="0" />
      <path
         transform="matrix(0.15072126,0,0,0.15072126,5.8987357,3.8908905)"
         id="path4411"
         d="m 657.90625,305 c -0.20844,-0.0127 -0.38212,-0.125 -0.59375,-0.125 -1.4109,0 -2.77746,0.26415 -4,0.78125 -1.22254,0.5171 -2.32539,1.29414 -3.25,2.21875 -0.92461,0.92461 -1.67041,1.9962 -2.1875,3.21875 -0.51709,1.22255 -0.78125,2.58909 -0.78125,4 0,1.41091 0.26416,2.7462 0.78125,3.96875 0.51709,1.22255 1.26289,2.32539 2.1875,3.25 0.92461,0.92461 2.02746,1.6704 3.25,2.1875 1.22254,0.5171 2.5891,0.8125 4,0.8125 0.21132,0 0.38561,-0.11235 0.59375,-0.125 l 0,-20.1875 z"
         clip-path="none"
         style="fill:#006600;display:inline;enable-background:new"
         inkscape:connector-curvature="0" />
      <path
         transform="matrix(0.15072126,0,0,0.15072126,5.8987357,3.8908905)"
         id="path1341-9-4"
         d="m 605.1875,239.1875 c -0.73012,0.11577 -1.33393,0.78125 -1.875,1.96875 -0.75839,1.66446 -1.06814,1.69381 -4.71875,0.5625 -1.20252,-0.37263 -1.55917,-0.0775 -2.375,1.875 -0.88197,2.10861 -1.15168,2.26075 -3.25,2.09375 -2.10084,-0.16733 -2.31529,-0.0273 -2.8125,1.84375 -0.5263,1.98026 -1.02475,2.3127 -4.59375,2.84375 -0.98749,0.14689 -1.31841,0.72051 -1.46875,2.78125 -0.16899,2.31882 -0.3886,2.67735 -2,3.03125 -2.06708,0.45398 -2.88532,2.20182 -1.90625,4.03125 1.06379,1.98767 0.76444,3.17905 -0.96875,3.96875 -1.26715,0.57681 -1.5343,1.02557 -1.25,2.15625 1.17091,4.65851 1.16688,4.67637 -0.1875,5.625 -1.69581,1.18774 -1.6896,2.32866 0.0312,4.65625 l 1.375,1.84375 -1.375,1.46875 c -1.61403,1.71805 -1.71838,2.49946 -0.4375,3.5625 0.51808,0.42995 0.96875,1.69257 0.96875,2.8125 0,1.1199 0.58871,2.7986 1.3125,3.71875 0.72388,0.92012 1.13236,2.08586 0.9375,2.59375 -0.46583,1.21399 3.66932,8.20779 5.59375,9.46875 0.85067,0.55725 2.04604,0.81708 2.75,0.59375 1.22796,-0.38973 1.67838,-1.23224 5.75,-10.28125 3.10093,-6.89165 6.49769,-9.11021 11.78125,-7.6875 4.87402,1.31244 8.28308,7.38762 9.46875,16.84375 0.76705,6.11724 0.47176,7.32525 -2.1875,8.96875 -1.15494,0.71379 -2.80952,2.14406 -3.6875,3.1875 -3.10748,3.69304 -1.68255,5.62746 5.03125,6.78125 5.22389,0.89775 6.33265,1.69045 11.21875,8.3125 5.24286,7.10563 8.65292,9.77096 15.125,11.8125 5.34384,1.68564 6.89065,4.51209 6.4375,11.78125 -0.40963,6.56599 -1.73632,8.73037 -8.28125,13.65625 -6.70071,5.04307 -9.13607,8.30147 -7.46875,9.96875 0.22284,0.22214 11.69123,0.3173 25.78125,0.25 l 0,-51.09375 c -0.20814,0.0127 -0.38243,0.125 -0.59375,0.125 -1.4109,0 -2.77746,-0.2954 -4,-0.8125 -1.22254,-0.5171 -2.32539,-1.26289 -3.25,-2.1875 -0.92461,-0.92461 -1.67041,-2.02745 -2.1875,-3.25 -0.51709,-1.22255 -0.78125,-2.55784 -0.78125,-3.96875 0,-1.41091 0.26416,-2.77745 0.78125,-4 0.51709,-1.22255 1.26289,-2.29414 2.1875,-3.21875 0.92461,-0.92461 2.02746,-1.70165 3.25,-2.21875 1.22254,-0.5171 2.5891,-0.78125 4,-0.78125 0.21163,0 0.38531,0.11232 0.59375,0.125 l 0,-13.375 c -1.09976,0.12493 -2.16056,0.23225 -2.9375,0.25 -4.7911,0.11015 -6.59377,-1.14351 -9.125,-6.28125 -1.03608,-2.10294 -2.2583,-4.27071 -2.71875,-4.8125 -0.69413,-0.81816 -0.72,-1.37651 -0.0312,-3.28125 0.80188,-2.21747 0.79344,-2.35119 -1,-3.78125 -1.75244,-1.39747 -1.81495,-1.56813 -1.09375,-3.5625 1.07384,-2.9706 0.94737,-4.10311 -0.5,-4.5625 -1.75337,-0.55649 -2.67383,-2.53687 -2.1875,-4.75 0.46961,-2.1383 -0.49093,-3.71875 -2.28125,-3.71875 -0.93285,0 -1.1875,-0.44701 -1.1875,-2.21875 0,-3.2252 -0.97825,-4.7431 -2.9375,-4.53125 -1.35721,0.14675 -1.76865,-0.19584 -2.40625,-2.03125 -0.6796,-1.95661 -0.9679,-2.17449 -2.71875,-2 -1.71144,0.17061 -2.11435,-0.10852 -3.03125,-2.03125 -1.25704,-2.63609 -2.53047,-3.27038 -3.96875,-1.96875 -1.54531,1.39848 -2.36646,1.19612 -3.4375,-0.875 -1.35978,-2.62954 -1.92199,-2.78105 -3.84375,-1 -2.1107,1.95581 -2.23854,1.97686 -4.625,-0.0312 -1.10171,-0.92702 -1.95738,-1.36577 -2.6875,-1.25 z"
         clip-path="none"
         style="fill:#006600;display:inline;enable-background:new"
         inkscape:connector-curvature="0" />
      <path
         inkscape:connector-curvature="0"
         id="path4393"
         d="m 106.50827,51.380962 c 0,0.850618 -0.68956,1.540179 -1.54018,1.540179 -0.85061,0 -1.54017,-0.689561 -1.54017,-1.540179 0,-0.850617 0.68956,-1.540178 1.54017,-1.540178 0.85062,0 1.54018,0.689561 1.54018,1.540178 z"
         style="fill:#e4f363;fill-opacity:1;fill-rule:evenodd;stroke:none" />
    </g>
    <g
       transform="translate(197.36027,342.91453)"
       style="font-size:40.41461182px;font-style:normal;font-variant:normal;font-weight:normal;font-stretch:normal;text-align:start;line-height:125%;letter-spacing:0px;word-spacing:0px;writing-mode:lr-tb;text-anchor:start;fill:#006600;fill-opacity:1;stroke:none;display:inline;enable-background:new;font-family:Ubuntu Mono;-inkscape-font-specification:Ubuntu Mono"
       id="text3183-2">
      <path
         d="m 37.929768,220.64499 c -0.747961,0.66564 -1.435519,1.25518 -2.062677,1.76864 -0.627144,0.51347 -1.254295,1.02694 -1.881455,1.54039 -0.635406,0.48783 -1.292333,0.99674 -1.970784,1.52672 -0.712338,0.51262 -1.510738,1.10957 -2.395202,1.79086 1.115839,0.0368 2.116691,0.0681 3.002561,0.094 0.860244,0.0342 1.694834,0.0767 2.503772,0.12736 0.800689,0.0251 1.609634,0.0758 2.426839,0.15215 0.808949,0.0507 1.711355,0.12793 2.70722,0.23164 l 0.768494,2.38495 c -2.922907,1.73445 -5.844534,3.34109 -8.76489,4.81995 -2.954243,1.46147 -5.676414,2.72077 -8.166519,3.77792 l -0.966816,-3.00042 c 0.975367,-0.39921 1.937894,-0.79428 2.887581,-1.18523 0.915812,-0.40832 1.878766,-0.84599 2.888863,-1.31301 1.010125,-0.46702 2.10586,-0.97579 3.287209,-1.5263 1.173107,-0.57615 2.495939,-1.21471 3.9685,-1.91567 -1.157991,-0.0798 -2.167107,-0.13676 -3.02735,-0.17095 -0.860226,-0.0342 -1.67373,-0.0551 -2.440515,-0.0628 -0.766763,-0.008 -1.542228,0.002 -2.326397,0.0278 -0.792404,5.8e-4 -1.678711,0.0173 -2.658921,0.05 l -0.768495,-2.38495 c 0.814944,-0.54566 1.548378,-1.03676 2.200304,-1.4733 0.651956,-0.43652 1.286944,-0.88174 1.904964,-1.33566 0.618046,-0.45391 1.270415,-0.93303 1.957107,-1.43739 0.686715,-0.50434 1.468161,-1.10998 2.34434,-1.81694 -1.484814,0.2237 -2.858794,0.43998 -4.121946,0.64883 -1.263126,0.20888 -2.441068,0.4186 -3.533829,0.62917 -1.118372,0.21885 -2.194163,0.43811 -3.227375,0.65779 -1.033172,0.21971 -2.087877,0.46049 -3.164118,0.72234 l -0.929631,-2.88502 c 1.32357,-0.28493 2.745135,-0.57315 4.2647,-0.86467 1.519605,-0.29148 3.090051,-0.55691 4.711345,-0.79628 1.621323,-0.23934 3.27654,-0.46132 4.965654,-0.66593 1.66349,-0.19632 3.279812,-0.3633 4.848972,-0.50095 l 0.768495,2.38495"
         style=""
         id="path3456" />
      <path
         d="m 33.791013,200.87737 c -0.840753,0.54373 -1.610203,1.02148 -2.308351,1.43325 -0.698138,0.41179 -1.396281,0.82357 -2.094431,1.23533 -0.702391,0.38519 -1.429266,0.78792 -2.180628,1.20819 -0.782204,0.39795 -1.662328,0.86611 -2.640375,1.40449 1.097169,0.20656 2.081525,0.39022 2.95307,0.55099 0.844958,0.16503 1.663302,0.33431 2.455035,0.50783 0.787491,0.14694 1.57923,0.32047 2.37522,0.5206 0.791743,0.17354 1.671806,0.38752 2.640192,0.64195 l 0.395656,2.47427 c -3.153297,1.26823 -6.285832,2.41035 -9.397614,3.42637 -3.142622,0.99367 -6.025045,1.82294 -8.647279,2.48783 l -0.49776,-3.11279 c 1.024852,-0.24574 2.036383,-0.48935 3.034596,-0.73083 0.967385,-0.26383 1.985837,-0.54947 3.055359,-0.85693 1.069548,-0.30745 2.230073,-0.6431 3.481579,-1.00694 1.247271,-0.39044 2.652036,-0.81971 4.214298,-1.28782 -1.132266,-0.2555 -2.120877,-0.46577 -2.965834,-0.6308 -0.844941,-0.16502 -1.645728,-0.30982 -2.402364,-0.4344 -0.756615,-0.12457 -1.524416,-0.23372 -2.303405,-0.32745 -0.783217,-0.12031 -1.661693,-0.23905 -2.635428,-0.3562 l -0.395656,-2.47427 c 0.888649,-0.41495 1.688418,-0.78841 2.399311,-1.12038 0.71092,-0.33195 1.406396,-0.67509 2.086431,-1.02941 0.680059,-0.35431 1.397886,-0.7283 2.153484,-1.122 0.755617,-0.39366 1.620312,-0.873 2.594086,-1.43801 -1.50156,-0.005 -2.892452,-0.001 -4.17268,0.0124 -1.280207,0.0137 -2.476355,0.0413 -3.588448,0.0827 -1.138669,0.0457 -2.235317,0.0983 -3.289949,0.15774 -1.054597,0.0595 -2.133688,0.13657 -3.237279,0.23117 l -0.478617,-2.99307 c 1.351546,-0.0797 2.800442,-0.14766 4.346692,-0.20394 1.546286,-0.0562 3.138842,-0.079 4.777676,-0.0682 1.638859,0.0108 3.308564,0.0439 5.009122,0.0994 1.673967,0.0598 3.296844,0.14131 4.868635,0.24467 l 0.395656,2.47427"
         style=""
         id="path3458" />
      <path
         d="m 32.679616,180.71153 c -0.912694,0.41172 -1.745007,0.76886 -2.496941,1.07145 -0.751928,0.30261 -1.50386,0.6052 -2.255796,0.90778 -0.752149,0.27567 -1.531134,0.56502 -2.336956,0.86805 -0.832973,0.27633 -1.773277,0.60742 -2.820914,0.99328 1.053869,0.36852 1.999626,0.69751 2.837273,0.98696 0.810719,0.2897 1.594489,0.57961 2.351312,0.86973 0.75661,0.2632 1.513438,0.55333 2.270486,0.8704 0.75683,0.29014 1.59493,0.63348 2.514301,1.03004 l 0.0207,2.50562 c -3.30765,0.78176 -6.575888,1.44194 -9.804725,1.98055 -3.255981,0.51189 -6.230081,0.90021 -8.92231,1.16494 l -0.02604,-3.15223 c 1.050094,-0.0895 2.086699,-0.1789 3.109816,-0.26819 0.995984,-0.116 2.045726,-0.24592 3.149228,-0.38976 1.103526,-0.14383 2.301227,-0.30192 3.593105,-0.47426 1.291673,-0.19927 2.744879,-0.41335 4.359621,-0.64225 -1.081242,-0.42217 -2.027221,-0.7781 -2.83794,-1.06779 -0.810705,-0.28968 -1.580781,-0.55276 -2.310232,-0.78923 -0.729431,-0.23647 -1.472231,-0.45935 -2.228403,-0.66867 -0.756371,-0.23624 -1.607162,-0.48517 -2.552377,-0.74681 l -0.0207,-2.50563 c 0.940763,-0.2772 1.787437,-0.52669 2.540024,-0.74847 0.752611,-0.22175 1.491628,-0.45688 2.217052,-0.70538 0.725444,-0.24848 1.491181,-0.51077 2.297211,-0.78688 0.806046,-0.27609 1.732767,-0.62054 2.780167,-1.03337 -1.483816,-0.23022 -2.859645,-0.43441 -4.127492,-0.61256 -1.267829,-0.17812 -2.454618,-0.32998 -3.56037,-0.45558 -1.13267,-0.12535 -2.224828,-0.23757 -3.276477,-0.33668 -1.051618,-0.0991 -2.130082,-0.18446 -3.235396,-0.25618 l -0.02504,-3.03099 c 1.348238,0.1236 2.790978,0.27334 4.328222,0.44923 1.537274,0.17593 3.115281,0.39192 4.734024,0.64797 1.618763,0.25608 3.264682,0.53887 4.937759,0.84836 1.646146,0.30974 3.238514,0.63339 4.777108,0.97093 l 0.0207,2.50562"
         style=""
         id="path3460" />
      <path
         d="m 31.912504,160.99949 c 0.800177,0.11426 1.468917,0.48191 2.006221,1.10294 0.537302,0.62105 0.743117,1.37167 0.617446,2.25185 -0.129483,0.90688 -0.53904,1.58324 -1.228674,2.02909 -0.689634,0.44587 -1.43454,0.61168 -2.234718,0.49742 -0.826847,-0.11805 -1.508923,-0.48759 -2.04623,-1.10864 -0.5373,-0.62104 -0.741211,-1.38499 -0.611734,-2.29187 0.125677,-0.88018 0.533331,-1.54321 1.222962,-1.98908 0.689637,-0.44585 1.447879,-0.60975 2.274727,-0.49171"
         style=""
         id="path3462" />
      <path
         d="m 28.015306,146.7386 c 0.928158,0.28168 1.819239,0.45355 2.673244,0.51562 0.836058,0.0285 1.609258,-0.0607 2.319604,-0.26745 0.684569,-0.21459 1.284413,-0.56752 1.799535,-1.0588 0.522947,-0.51705 0.91352,-1.20098 1.171719,-2.05179 0.226902,-0.74767 0.304179,-1.51259 0.231832,-2.29479 -0.07235,-0.78216 -0.221336,-1.40458 -0.446962,-1.86726 l -11.331184,-3.43875 c -0.189183,0.25233 -0.400695,0.62456 -0.634537,1.11671 -0.225994,0.4664 -0.472009,1.13789 -0.738044,2.01446 -0.477265,1.57272 -0.288381,3.03786 0.566651,4.39543 0.837098,1.324 2.299811,2.30287 4.388142,2.93662 m -0.997588,3.2872 c -1.443781,-0.43815 -2.683176,-1.03953 -3.718189,-1.80413 -1.034989,-0.7646 -1.838659,-1.64201 -2.411012,-2.63225 -0.598106,-0.99804 -0.955917,-2.0921 -1.073433,-3.28219 -0.109661,-1.21584 0.03111,-2.46832 0.422301,-3.75743 0.422523,-1.39221 0.910192,-2.58164 1.463008,-3.56831 0.534886,-1.02023 1.018902,-1.87289 1.452047,-2.558 l 23.74521,7.20611 -0.974115,3.20986 -7.077155,-2.14775 c 0.140453,0.46498 0.217161,1.09363 0.230124,1.88593 0.03874,0.80015 -0.07881,1.6514 -0.352659,2.55376 -0.367741,1.21176 -0.928395,2.22418 -1.681965,3.03727 -0.753573,0.81311 -1.644584,1.42963 -2.673038,1.84959 -1.020627,0.39417 -2.152913,0.5996 -3.396863,0.61628 -1.269723,0.009 -2.587808,-0.19405 -3.954261,-0.60874"
         style=""
         id="path3464" />
      <path
         d="m 45.867279,121.55736 c 0.03039,0.43339 -0.01482,1.05465 -0.135626,1.86378 -0.120814,0.80916 -0.403485,1.67488 -0.848013,2.59717 -0.47963,0.99511 -1.087773,1.85351 -1.82443,2.57518 -0.749232,0.68571 -1.609432,1.1983 -2.5806,1.53776 -0.98374,0.3035 -2.078886,0.40375 -3.285442,0.30076 -1.219121,-0.13896 -2.532541,-0.54768 -3.940265,-1.22619 -1.23781,-0.5966 -2.284523,-1.31046 -3.140139,-2.14159 -0.868167,-0.86708 -1.52053,-1.8096 -1.957091,-2.82758 -0.424837,-1.04222 -0.609601,-2.14819 -0.554292,-3.31791 0.03107,-1.18139 0.344895,-2.391 0.941491,-3.62884 0.701906,-1.45624 1.407734,-2.64142 2.117487,-3.55553 0.697202,-0.95005 1.312505,-1.73022 1.845912,-2.34051 l 15.072282,7.2646 c 2.621258,1.26342 4.192692,2.84333 4.714307,4.73974 0.533292,1.87215 0.156541,4.14313 -1.130252,6.81293 -0.52643,1.0922 -1.091005,2.04637 -1.693728,2.8625 -0.59104,0.79187 -1.171686,1.46911 -1.74194,2.03171 l -2.394462,-1.82705 c 0.57113,-0.50236 1.134666,-1.11307 1.690609,-1.83213 0.567631,-0.74332 1.085413,-1.60041 1.553349,-2.57125 0.842264,-1.7475 1.092793,-3.16708 0.751588,-4.25874 -0.341221,-1.09164 -1.300634,-2.01765 -2.878242,-2.77805 l -0.582503,-0.28076 m -12.669455,-6.10647 c -0.237454,0.24448 -0.515423,0.604 -0.833907,1.07858 -0.342738,0.46292 -0.724679,1.13124 -1.145825,2.00498 -0.748675,1.55336 -0.787927,3 -0.117754,4.33992 0.681892,1.31567 1.908722,2.40049 3.680496,3.25445 0.970845,0.46794 1.860835,0.76231 2.669973,0.88311 0.796573,0.0848 1.519017,0.0442 2.167335,-0.12185 0.635749,-0.20203 1.185673,-0.50525 1.649774,-0.90966 0.43983,-0.4161 0.800124,-0.9154 1.080882,-1.49792 0.362644,-0.75239 0.592673,-1.50889 0.690088,-2.2695 0.109109,-0.78486 0.117474,-1.45378 0.02509,-2.00678 l -9.866156,-4.75533"
         style=""
         id="path3466" />
      <path
         d="m 37.139878,97.39921 c -0.398442,0.576179 -0.9427,0.936852 -1.632773,1.08202 -0.690045,0.145205 -1.378554,-0.01974 -2.065531,-0.494844 -0.686943,-0.475062 -1.084274,-1.06105 -1.191993,-1.757965 -0.107683,-0.696873 0.03769,-1.3334 0.436133,-1.909582 0.413798,-0.598298 0.958056,-0.958971 1.632774,-1.082021 0.690074,-0.145162 1.378584,0.01978 2.06553,0.494844 0.686974,0.475105 1.084304,1.061093 1.191993,1.757965 0.123039,0.674755 -0.02234,1.311282 -0.436133,1.909583 m 4.2041,3.93933 -3.080371,4.45416 -2.293562,-1.58616 4.965374,-7.179847 9.47341,6.551537 c 1.52904,1.05745 2.705069,1.55955 3.528092,1.50631 0.800855,-0.0686 1.492464,-0.52387 2.074828,-1.36596 0.444425,-0.64263 0.772984,-1.28351 0.985676,-1.92264 0.228003,-0.66126 0.360645,-1.20832 0.397925,-1.64118 l 2.602657,1.21027 c -0.02548,0.17895 -0.06711,0.42861 -0.124874,0.74898 -0.07995,0.30508 -0.190534,0.65446 -0.331763,1.04815 -0.125923,0.37155 -0.293566,0.77975 -0.502931,1.22459 -0.194058,0.42271 -0.436672,0.84458 -0.727842,1.26561 -0.674318,0.97505 -1.366648,1.69194 -2.076994,2.15067 -0.710357,0.45874 -1.469379,0.70365 -2.277069,0.73471 -0.792373,0.009 -1.629995,-0.17725 -2.512871,-0.55852 -0.905037,-0.39658 -1.878316,-0.95501 -2.919837,-1.67531 l -7.179848,-4.96537"
         style=""
         id="path3468" />
      <path
         d="m 68.083666,86.518815 c -0.486802,-0.465534 -1.081505,-0.642829 -1.78411,-0.531884 -0.683992,0.0915 -1.431456,0.327325 -2.242395,0.707476 -0.792321,0.360706 -1.63077,0.789125 -2.515349,1.285258 -0.904051,0.477535 -1.810226,0.859824 -2.718529,1.146868 -0.889676,0.267594 -1.773443,0.373066 -2.651304,0.316416 -0.859229,-0.0761 -1.678283,-0.486593 -2.457164,-1.231481 -1.090415,-1.042815 -1.576863,-2.34685 -1.459345,-3.912109 0.116687,-1.603321 1.078188,-3.349374 2.884506,-5.238163 0.707639,-0.739909 1.492309,-1.443445 2.354012,-2.11061 0.860861,-0.705213 1.648931,-1.256374 2.364211,-1.653485 l 1.742383,2.50515 c -0.226863,0.08131 -0.509591,0.221012 -0.848186,0.419108 -0.358065,0.179518 -0.733903,0.41658 -1.127514,0.711186 -0.41308,0.276027 -0.834623,0.599862 -1.26463,0.971507 -0.411378,0.352213 -0.793977,0.713292 -1.147798,1.083238 -2.011161,2.102978 -2.442324,3.703803 -1.293491,4.802481 0.408914,0.391074 0.945626,0.53155 1.610138,0.421428 0.66367,-0.148188 1.400973,-0.412371 2.211912,-0.79255 0.810943,-0.38015 1.678175,-0.799682 2.601698,-1.2586 0.90405,-0.477507 1.819961,-0.850485 2.747737,-1.118935 0.927768,-0.268416 1.831007,-0.355266 2.709719,-0.260551 0.87785,0.05666 1.696479,0.448103 2.455889,1.174341 1.226718,1.173196 1.724601,2.56273 1.493652,4.168604 -0.25044,1.587277 -1.362617,3.412917 -3.336531,5.476926 -0.893859,0.934654 -1.79111,1.716928 -2.691756,2.346822 -0.900655,0.629903 -1.84195,1.14637 -2.823886,1.549403 l -1.743658,-2.562291 c 0.963316,-0.383559 1.905885,-0.842885 2.82771,-1.377981 0.920971,-0.573176 1.791139,-1.288148 2.610507,-2.144917 2.10427,-2.20031 2.601461,-3.831193 1.491572,-4.892655"
         style=""
         id="path3470" />
      <path
         d="m 84.555182,75.419203 c 0.486815,0.645252 0.701763,1.377491 0.644842,2.196718 -0.05694,0.819243 -0.440287,1.496613 -1.150045,2.032114 -0.731283,0.55174 -1.498616,0.742538 -2.302004,0.572397 -0.803399,-0.170131 -1.448507,-0.57782 -1.935327,-1.223069 -0.503056,-0.666744 -0.726117,-1.409736 -0.669184,-2.22898 0.05693,-0.819226 0.451029,-1.504711 1.182308,-2.056455 0.709761,-0.535496 1.466341,-0.718181 2.269741,-0.548056 0.803387,0.170148 1.456609,0.588591 1.959669,1.255331"
         style=""
         id="path3472" />
      <path
         d="m 100.94385,57.879273 c -1.009329,-1.934949 -2.242005,-3.191224 -3.698032,-3.768827 -1.468499,-0.601454 -2.931344,-0.522139 -4.388539,0.237947 -0.812208,0.423683 -1.438505,0.795955 -1.878893,1.116818 -0.416497,0.308436 -0.731212,0.578957 -0.944144,0.811562 l 5.476494,10.498985 c 0.496424,0.136106 1.135666,0.167323 1.917728,0.09365 0.782051,-0.07366 1.519461,-0.291174 2.212234,-0.652542 0.788312,-0.411197 1.376192,-0.915372 1.763652,-1.512527 0.41132,-0.609599 0.65908,-1.270631 0.74328,-1.983098 0.0717,-0.736335 0.004,-1.506447 -0.20231,-2.310338 -0.21907,-0.827755 -0.55289,-1.671631 -1.00147,-2.53163 m 3.04578,-1.588744 c 0.66041,1.266105 1.10376,2.523864 1.33007,3.773281 0.23771,1.213095 0.24539,2.36384 0.023,3.45224 -0.19848,1.075958 -0.62751,2.059452 -1.28707,2.950484 -0.6596,0.891046 -1.55077,1.629392 -2.67351,2.215042 -0.88389,0.461051 -1.716333,0.758527 -2.497349,0.892427 -0.781031,0.133908 -1.407295,0.156699 -1.878796,0.06837 l 3.420475,6.557387 -2.974119,1.551362 -11.495029,-22.03712 c 0.545308,-0.527529 1.269774,-1.148532 2.1734,-1.863009 0.927521,-0.7269 2.048212,-1.433029 3.362077,-2.11839 1.194423,-0.623015 2.387263,-0.986926 3.578526,-1.091735 1.191255,-0.104763 2.332639,0.04438 3.424154,0.447426 1.079041,0.379203 2.090041,1.006598 3.032991,1.882186 0.94294,0.875629 1.76332,1.982311 2.46113,3.320047"
         style="fill:#006600;fill-opacity:1"
         id="path3474" />
      <path
         d="m 113.38985,42.934889 7.5409,-2.425143 0.85375,2.654703 -7.5409,2.425143 2.67261,8.310375 c 0.2887,0.897735 0.58791,1.608117 0.89764,2.13115 0.30971,0.523048 0.66338,0.918744 1.06102,1.187091 0.41501,0.234462 0.87399,0.341574 1.37693,0.321336 0.50292,-0.02022 1.08783,-0.137575 1.75472,-0.35205 0.92337,-0.29695 1.64245,-0.613112 2.15725,-0.948488 0.51478,-0.335361 0.98743,-0.71378 1.41794,-1.135257 l 1.32781,2.544699 c -0.30961,0.269384 -0.82073,0.660176 -1.53336,1.172376 -0.687,0.503961 -1.60761,0.941537 -2.76181,1.312728 -1.33378,0.42894 -2.47336,0.625618 -3.41877,0.590033 -0.94542,-0.03558 -1.76078,-0.282798 -2.44608,-0.741657 -0.65966,-0.467101 -1.22362,-1.120645 -1.69186,-1.960634 -0.47651,-0.865627 -0.90861,-1.901201 -1.29629,-3.106726 l -2.67261,-8.310375 -3.77045,1.212572 -0.85375,-2.654703 3.77045,-1.212572 -1.60851,-5.001614 2.98164,-1.553236 1.78173,5.540249"
         style="fill:#006600;fill-opacity:1"
         id="path3476" />
    </g>
  </g>
</svg>
